<svg width="25" height="24" viewBox="0 0 25 24" fill="none" xmlns="http://www.w3.org/2000/svg">
<path d="M7.14285 15H10.1429C10.4081 15 10.6624 14.8946 10.85 14.7071C11.0375 14.5196 11.1429 14.2652 11.1429 14C11.1429 13.7348 11.0375 13.4804 10.85 13.2929C10.6624 13.1054 10.4081 13 10.1429 13H7.14285C6.87764 13 6.62328 13.1054 6.43575 13.2929C6.24821 13.4804 6.14285 13.7348 6.14285 14C6.14285 14.2652 6.24821 14.5196 6.43575 14.7071C6.62328 14.8946 6.87764 15 7.14285 15ZM19.1429 5H5.14285C4.3472 5 3.58414 5.31607 3.02153 5.87868C2.45892 6.44129 2.14285 7.20435 2.14285 8V17C2.14285 17.7956 2.45892 18.5587 3.02153 19.1213C3.58414 19.6839 4.3472 20 5.14285 20H19.1429C19.9385 20 20.7016 19.6839 21.2642 19.1213C21.8268 18.5587 22.1429 17.7956 22.1429 17V8C22.1429 7.20435 21.8268 6.44129 21.2642 5.87868C20.7016 5.31607 19.9385 5 19.1429 5ZM20.1429 17C20.1429 17.2652 20.0375 17.5196 19.85 17.7071C19.6624 17.8946 19.4081 18 19.1429 18H5.14285C4.87764 18 4.62328 17.8946 4.43575 17.7071C4.24821 17.5196 4.14285 17.2652 4.14285 17V11H20.1429V17ZM20.1429 9H4.14285V8C4.14285 7.73478 4.24821 7.48043 4.43575 7.29289C4.62328 7.10536 4.87764 7 5.14285 7H19.1429C19.4081 7 19.6624 7.10536 19.85 7.29289C20.0375 7.48043 20.1429 7.73478 20.1429 8V9Z" fill="#FF7E08"/>
</svg>
