<svg width="18" height="18" viewBox="0 0 18 18" fill="none" xmlns="http://www.w3.org/2000/svg">
<path d="M2.67857 1.42857C2.34705 1.42857 2.02911 1.56027 1.79469 1.79469C1.56027 2.02911 1.42857 2.34705 1.42857 2.67857V5C1.42857 5.18944 1.35332 5.37112 1.21936 5.50508C1.08541 5.63903 0.903726 5.71429 0.714286 5.71429C0.524845 5.71429 0.343164 5.63903 0.209209 5.50508C0.0752549 5.37112 0 5.18944 0 5V2.67857C0 1.96817 0.282206 1.28686 0.784535 0.784535C1.28686 0.282206 1.96817 0 2.67857 0H5C5.18944 0 5.37112 0.0752549 5.50508 0.209209C5.63903 0.343164 5.71429 0.524845 5.71429 0.714286C5.71429 0.903726 5.63903 1.08541 5.50508 1.21936C5.37112 1.35332 5.18944 1.42857 5 1.42857H2.67857ZM2.67857 15.7143C2.34705 15.7143 2.02911 15.5826 1.79469 15.3482C1.56027 15.1137 1.42857 14.7958 1.42857 14.4643V12.1429C1.42857 11.9534 1.35332 11.7717 1.21936 11.6378C1.08541 11.5038 0.903726 11.4286 0.714286 11.4286C0.524845 11.4286 0.343164 11.5038 0.209209 11.6378C0.0752549 11.7717 0 11.9534 0 12.1429V14.4643C0 15.1747 0.282206 15.856 0.784535 16.3583C1.28686 16.8607 1.96817 17.1429 2.67857 17.1429H5C5.18944 17.1429 5.37112 17.0676 5.50508 16.9336C5.63903 16.7997 5.71429 16.618 5.71429 16.4286C5.71429 16.2391 5.63903 16.0574 5.50508 15.9235C5.37112 15.7895 5.18944 15.7143 5 15.7143H2.67857ZM15.7143 2.67857C15.7143 2.34705 15.5826 2.02911 15.3482 1.79469C15.1137 1.56027 14.7958 1.42857 14.4643 1.42857H12.1429C11.9534 1.42857 11.7717 1.35332 11.6378 1.21936C11.5038 1.08541 11.4286 0.903726 11.4286 0.714286C11.4286 0.524845 11.5038 0.343164 11.6378 0.209209C11.7717 0.0752549 11.9534 0 12.1429 0H14.4643C15.1747 0 15.856 0.282206 16.3583 0.784535C16.8607 1.28686 17.1429 1.96817 17.1429 2.67857V5C17.1429 5.18944 17.0676 5.37112 16.9336 5.50508C16.7997 5.63903 16.618 5.71429 16.4286 5.71429C16.2391 5.71429 16.0574 5.63903 15.9235 5.50508C15.7895 5.37112 15.7143 5.18944 15.7143 5V2.67857ZM14.4643 15.7143C14.7958 15.7143 15.1137 15.5826 15.3482 15.3482C15.5826 15.1137 15.7143 14.7958 15.7143 14.4643V12.1429C15.7143 11.9534 15.7895 11.7717 15.9235 11.6378C16.0574 11.5038 16.2391 11.4286 16.4286 11.4286C16.618 11.4286 16.7997 11.5038 16.9336 11.6378C17.0676 11.7717 17.1429 11.9534 17.1429 12.1429V14.4643C17.1429 15.1747 16.8607 15.856 16.3583 16.3583C15.856 16.8607 15.1747 17.1429 14.4643 17.1429H12.1429C11.9534 17.1429 11.7717 17.0676 11.6378 16.9336C11.5038 16.7997 11.4286 16.618 11.4286 16.4286C11.4286 16.2391 11.5038 16.0574 11.6378 15.9235C11.7717 15.7895 11.9534 15.7143 12.1429 15.7143H14.4643ZM10.2379 8.63571C10.2379 9.56857 9.49214 10.3243 8.57143 10.3243C7.65071 10.3243 6.905 9.56857 6.905 8.63643C6.905 7.70429 7.65 6.94786 8.57143 6.94786C9.49286 6.94786 10.2379 7.70357 10.2379 8.63571ZM6.30214 4.27214C6.51357 3.84357 6.94643 3.57214 7.42 3.57214H9.72286C10.1964 3.57214 10.63 3.84357 10.8407 4.27214L11.3286 5.26071H11.905C12.825 5.26071 13.5714 6.01643 13.5714 6.94857V11.17C13.5714 12.1007 12.825 12.8571 11.905 12.8571H5.23786C4.31786 12.8571 3.57143 12.1014 3.57143 11.1686V6.94786C3.57143 6.01571 4.31786 5.26 5.23786 5.26H5.81357L6.30214 4.27214ZM11.0714 8.63643C11.0714 7.23857 9.95214 6.105 8.57143 6.105C7.19071 6.105 6.07143 7.23857 6.07143 8.63714C6.07143 10.0357 7.19071 11.1693 8.57143 11.1693C9.95214 11.1693 11.0714 10.0357 11.0714 8.63714" fill="#BEC0BF"/>
</svg>
