<svg width="25" height="25" viewBox="0 0 25 25" fill="none" xmlns="http://www.w3.org/2000/svg">
<path d="M12.5 2.01355C18.02 2.01355 22.5 6.49355 22.5 12.0135C22.5 17.5335 18.02 22.0135 12.5 22.0135C6.98 22.0135 2.5 17.5335 2.5 12.0135C2.5 6.49355 6.98 2.01355 12.5 2.01355ZM12.5 7.01355C9.74 7.01355 7.5 9.25355 7.5 12.0135C7.5 14.7735 9.74 17.0135 12.5 17.0135C13.3636 17.0136 14.2124 16.79 14.9639 16.3645C15.7153 15.939 16.3438 15.3261 16.788 14.5855L15.073 13.5575C14.8031 14.0072 14.4201 14.3782 13.9621 14.6336C13.5041 14.8891 12.9871 15.02 12.4627 15.0133C11.9384 15.0066 11.4249 14.8627 10.9735 14.5957C10.5222 14.3287 10.1487 13.9481 9.89029 13.4917C9.63189 13.0354 9.49763 12.5193 9.50089 11.9949C9.50414 11.4705 9.6448 10.9561 9.90885 10.503C10.1729 10.05 10.5511 9.674 11.0057 9.41265C11.4604 9.1513 11.9756 9.01369 12.5 9.01355C13.593 9.01355 14.55 9.59755 15.073 10.4705L16.788 9.44055C16.3437 8.70019 15.7152 8.08751 14.9637 7.66219C14.2123 7.23687 13.3635 7.0134 12.5 7.01355Z" fill="#F8F7F7"/>
</svg>
