<svg width="21" height="20" viewBox="0 0 21 20" fill="none" xmlns="http://www.w3.org/2000/svg">
<path d="M17.6429 14.1667H15.1429M15.1429 14.1667C15.1429 14.9433 15.1429 15.3317 15.0162 15.6375C14.9324 15.8399 14.8096 16.0237 14.6547 16.1786C14.4999 16.3334 14.316 16.4562 14.1137 16.54C13.8079 16.6667 13.4195 16.6667 12.6429 16.6667C11.8662 16.6667 11.4779 16.6667 11.172 16.54C10.9697 16.4562 10.7858 16.3334 10.631 16.1786C10.4761 16.0237 10.3533 15.8399 10.2695 15.6375C10.1429 15.3317 10.1429 14.9433 10.1429 14.1667C10.1429 13.39 10.1429 13.0017 10.2695 12.6958C10.3533 12.4935 10.4761 12.3096 10.631 12.1548C10.7858 11.9999 10.9697 11.8771 11.172 11.7933C11.4779 11.6667 11.8662 11.6667 12.6429 11.6667C13.4195 11.6667 13.8079 11.6667 14.1137 11.7933C14.316 11.8771 14.4999 11.9999 14.6547 12.1548C14.8096 12.3096 14.9324 12.4935 15.0162 12.6958C15.1429 13.0017 15.1429 13.39 15.1429 14.1667ZM17.6429 5.83334L12.6429 5.83334M5.14285 5.83334H2.64285M5.14285 5.83334C5.14285 6.61001 5.14285 6.99834 5.26952 7.30417C5.35328 7.50652 5.4761 7.69038 5.63096 7.84524C5.78581 8.00009 5.96967 8.12291 6.17202 8.20667C6.47785 8.33334 6.86619 8.33334 7.64285 8.33334C8.41952 8.33334 8.80785 8.33334 9.11369 8.20667C9.31604 8.12291 9.49989 8.00009 9.65475 7.84524C9.80961 7.69038 9.93242 7.50652 10.0162 7.30417C10.1429 6.99834 10.1429 6.61001 10.1429 5.83334C10.1429 5.05667 10.1429 4.66834 10.0162 4.36251C9.93242 4.16016 9.80961 3.9763 9.65475 3.82144C9.49989 3.66659 9.31604 3.54377 9.11369 3.46001C8.80785 3.33334 8.41952 3.33334 7.64285 3.33334C6.86619 3.33334 6.47785 3.33334 6.17202 3.46001C5.96967 3.54377 5.78581 3.66659 5.63096 3.82144C5.4761 3.9763 5.35328 4.16016 5.26952 4.36251C5.14285 4.66834 5.14285 5.05667 5.14285 5.83334ZM7.64285 14.1667H2.64285" stroke="#BEC0BF" stroke-width="1.5" stroke-linecap="round" stroke-linejoin="round"/>
</svg>
