<svg width="20" height="20" viewBox="0 0 20 20" fill="none" xmlns="http://www.w3.org/2000/svg">
<path d="M14.3103 0C12.5784 0 11.0414 0.792981 10 2.15595C8.95862 0.792981 7.42155 0 5.68966 0C4.18123 0.00211705 2.7351 0.698135 1.66848 1.93539C0.601855 3.17264 0.00182508 4.85011 0 6.59984C0 13.8337 9.12155 19.6135 9.50948 19.8565C9.66023 19.9507 9.82878 20 10 20C10.1712 20 10.3398 19.9507 10.4905 19.8565C10.8784 19.6135 20 13.8337 20 6.59984C19.9982 4.85011 19.3981 3.17264 18.3315 1.93539C17.2649 0.698135 15.8188 0.00211705 14.3103 0ZM13.8371 14.2357C12.6364 15.4175 11.353 16.4811 10 17.4156C8.64703 16.4811 7.36356 15.4175 6.16293 14.2357C4.29483 12.3767 2.06897 9.54177 2.06897 6.59984C2.06897 5.48596 2.45043 4.4177 3.12944 3.63006C3.80845 2.84243 4.72939 2.39994 5.68966 2.39994C7.22414 2.39994 8.50862 3.33992 9.04224 4.85388C9.11991 5.07459 9.25249 5.26345 9.42306 5.3964C9.59364 5.52935 9.79449 5.60035 10 5.60035C10.2055 5.60035 10.4064 5.52935 10.5769 5.3964C10.7475 5.26345 10.8801 5.07459 10.9578 4.85388C11.4914 3.33992 12.7759 2.39994 14.3103 2.39994C15.2706 2.39994 16.1915 2.84243 16.8706 3.63006C17.5496 4.4177 17.931 5.48596 17.931 6.59984C17.931 9.54177 15.7052 12.3767 13.8371 14.2357Z" fill="#00140D"/>
</svg>
