<svg xmlns="http://www.w3.org/2000/svg" viewBox="0 0 100 100" preserveAspectRatio="xMidYMid" width="40" height="40" style="shape-rendering: auto; display: block; background: transparent;" xmlns:xlink="http://www.w3.org/1999/xlink"><g><g transform="rotate(0 50 50)">
  <rect fill="#ff7e08" height="12" width="3" ry="6" rx="1.5" y="22" x="48.5">
    <animate repeatCount="indefinite" begin="-0.935374149659864s" dur="1.0204081632653061s" keyTimes="0;1" values="1;0" attributeName="opacity"></animate>
  </rect>
</g><g transform="rotate(30 50 50)">
  <rect fill="#ff7e08" height="12" width="3" ry="6" rx="1.5" y="22" x="48.5">
    <animate repeatCount="indefinite" begin="-0.8503401360544218s" dur="1.0204081632653061s" keyTimes="0;1" values="1;0" attributeName="opacity"></animate>
  </rect>
</g><g transform="rotate(60 50 50)">
  <rect fill="#ff7e08" height="12" width="3" ry="6" rx="1.5" y="22" x="48.5">
    <animate repeatCount="indefinite" begin="-0.7653061224489796s" dur="1.0204081632653061s" keyTimes="0;1" values="1;0" attributeName="opacity"></animate>
  </rect>
</g><g transform="rotate(90 50 50)">
  <rect fill="#ff7e08" height="12" width="3" ry="6" rx="1.5" y="22" x="48.5">
    <animate repeatCount="indefinite" begin="-0.6802721088435374s" dur="1.0204081632653061s" keyTimes="0;1" values="1;0" attributeName="opacity"></animate>
  </rect>
</g><g transform="rotate(120 50 50)">
  <rect fill="#ff7e08" height="12" width="3" ry="6" rx="1.5" y="22" x="48.5">
    <animate repeatCount="indefinite" begin="-0.5952380952380952s" dur="1.0204081632653061s" keyTimes="0;1" values="1;0" attributeName="opacity"></animate>
  </rect>
</g><g transform="rotate(150 50 50)">
  <rect fill="#ff7e08" height="12" width="3" ry="6" rx="1.5" y="22" x="48.5">
    <animate repeatCount="indefinite" begin="-0.5102040816326531s" dur="1.0204081632653061s" keyTimes="0;1" values="1;0" attributeName="opacity"></animate>
  </rect>
</g><g transform="rotate(180 50 50)">
  <rect fill="#ff7e08" height="12" width="3" ry="6" rx="1.5" y="22" x="48.5">
    <animate repeatCount="indefinite" begin="-0.4251700680272109s" dur="1.0204081632653061s" keyTimes="0;1" values="1;0" attributeName="opacity"></animate>
  </rect>
</g><g transform="rotate(210 50 50)">
  <rect fill="#ff7e08" height="12" width="3" ry="6" rx="1.5" y="22" x="48.5">
    <animate repeatCount="indefinite" begin="-0.3401360544217687s" dur="1.0204081632653061s" keyTimes="0;1" values="1;0" attributeName="opacity"></animate>
  </rect>
</g><g transform="rotate(240 50 50)">
  <rect fill="#ff7e08" height="12" width="3" ry="6" rx="1.5" y="22" x="48.5">
    <animate repeatCount="indefinite" begin="-0.25510204081632654s" dur="1.0204081632653061s" keyTimes="0;1" values="1;0" attributeName="opacity"></animate>
  </rect>
</g><g transform="rotate(270 50 50)">
  <rect fill="#ff7e08" height="12" width="3" ry="6" rx="1.5" y="22" x="48.5">
    <animate repeatCount="indefinite" begin="-0.17006802721088435s" dur="1.0204081632653061s" keyTimes="0;1" values="1;0" attributeName="opacity"></animate>
  </rect>
</g><g transform="rotate(300 50 50)">
  <rect fill="#ff7e08" height="12" width="3" ry="6" rx="1.5" y="22" x="48.5">
    <animate repeatCount="indefinite" begin="-0.08503401360544217s" dur="1.0204081632653061s" keyTimes="0;1" values="1;0" attributeName="opacity"></animate>
  </rect>
</g><g transform="rotate(330 50 50)">
  <rect fill="#ff7e08" height="12" width="3" ry="6" rx="1.5" y="22" x="48.5">
    <animate repeatCount="indefinite" begin="0s" dur="1.0204081632653061s" keyTimes="0;1" values="1;0" attributeName="opacity"></animate>
  </rect>
</g><g></g></g></svg>